HIERARCHY
ROOT Hips
{
	OFFSET -395.419647 -566.670227 89.000702
	CHANNELS 6 Xposition Yposition Zposition Zrotation Yrotation Xrotation
	JOINT Spine
	{
		OFFSET 0.000000 2.080078 8.814247
		CHANNELS 6 Xposition Yposition Zposition Zrotation Yrotation Xrotation
		JOINT Spine1
		{
			OFFSET 0.000000 0.000000 8.844139
			CHANNELS 6 Xposition Yposition Zposition Zrotation Yrotation Xrotation
			JOINT Spine2
			{
				OFFSET 0.000000 0.000000 11.682266
				CHANNELS 6 Xposition Yposition Zposition Zrotation Yrotation Xrotation
				JOINT Spine3
				{
					OFFSET 0.000000 0.000000 11.746704
					CHANNELS 6 Xposition Yposition Zposition Zrotation Yrotation Xrotation
					JOINT Neck
					{
						OFFSET 0.000000 0.000000 17.658264
						CHANNELS 6 Xposition Yposition Zposition Zrotation Yrotation Xrotation
						JOINT Neck1
						{
							OFFSET 0.000000 0.000000 5.101517
							CHANNELS 6 Xposition Yposition Zposition Zrotation Yrotation Xrotation
							JOINT Head
							{
								OFFSET 0.000000 0.000000 5.101517
								CHANNELS 6 Xposition Yposition Zposition Zrotation Yrotation Xrotation
								JOINT HeadEnd
								{
									OFFSET 0.000000 0.000000 11.655090
									CHANNELS 6 Xposition Yposition Zposition Zrotation Yrotation Xrotation
									End Site
									{
										OFFSET 0.000000 0.000000 0.100006
									}
								}
							}
						}
					}
					JOINT RightShoulder
					{
						OFFSET -2.625397 0.000000 11.175217
						CHANNELS 6 Xposition Yposition Zposition Zrotation Yrotation Xrotation
						JOINT RightArm
						{
							OFFSET 0.000000 0.000000 10.434708
							CHANNELS 6 Xposition Yposition Zposition Zrotation Yrotation Xrotation
							JOINT RightForeArm
							{
								OFFSET 0.000000 0.000000 29.628418
								CHANNELS 6 Xposition Yposition Zposition Zrotation Yrotation Xrotation
								JOINT RightHand
								{
									OFFSET 0.000000 0.000000 22.857605
									CHANNELS 6 Xposition Yposition Zposition Zrotation Yrotation Xrotation
									JOINT RightHandThumb1
									{
										OFFSET -2.867310 -2.944275 3.959564
										CHANNELS 6 Xposition Yposition Zposition Zrotation Yrotation Xrotation
										JOINT RightHandThumb2
										{
											OFFSET 0.000000 0.000000 3.350403
											CHANNELS 6 Xposition Yposition Zposition Zrotation Yrotation Xrotation
											JOINT RightHandThumb3
											{
												OFFSET 0.000000 0.000000 3.756516
												CHANNELS 6 Xposition Yposition Zposition Zrotation Yrotation Xrotation
												JOINT RightHandThumb4
												{
													OFFSET 0.000000 0.000000 3.147339
													CHANNELS 6 Xposition Yposition Zposition Zrotation Yrotation Xrotation
													End Site
													{
														OFFSET 0.000000 0.000000 0.100006
													}
												}
											}
										}
									}
									JOINT RightHandIndex1
									{
										OFFSET -0.086761 -2.345276 10.030899
										CHANNELS 6 Xposition Yposition Zposition Zrotation Yrotation Xrotation
										JOINT RightHandIndex2
										{
											OFFSET 0.000000 0.000000 4.061096
											CHANNELS 6 Xposition Yposition Zposition Zrotation Yrotation Xrotation
											JOINT RightHandIndex3
											{
												OFFSET 0.000000 0.000000 3.248871
												CHANNELS 6 Xposition Yposition Zposition Zrotation Yrotation Xrotation
												JOINT RightHandIndex4
												{
													OFFSET 0.000000 0.000000 2.639709
													CHANNELS 6 Xposition Yposition Zposition Zrotation Yrotation Xrotation
													End Site
													{
														OFFSET 0.000000 0.000000 0.100006
													}
												}
											}
										}
									}
									JOINT RightHandMiddle1
									{
										OFFSET 0.104095 -0.006775 9.502945
										CHANNELS 6 Xposition Yposition Zposition Zrotation Yrotation Xrotation
										JOINT RightHandMiddle2
										{
											OFFSET 0.000000 0.000000 4.568726
											CHANNELS 6 Xposition Yposition Zposition Zrotation Yrotation Xrotation
											JOINT RightHandMiddle3
											{
												OFFSET 0.000000 0.000000 3.654984
												CHANNELS 6 Xposition Yposition Zposition Zrotation Yrotation Xrotation
												JOINT RightHandMiddle4
												{
													OFFSET 0.000000 0.000000 2.741241
													CHANNELS 6 Xposition Yposition Zposition Zrotation Yrotation Xrotation
													End Site
													{
														OFFSET 0.000000 0.000000 0.100006
													}
												}
											}
										}
									}
									JOINT RightHandRing1
									{
										OFFSET 0.086761 2.267456 8.921707
										CHANNELS 6 Xposition Yposition Zposition Zrotation Yrotation Xrotation
										JOINT RightHandRing2
										{
											OFFSET 0.000000 0.000000 4.061096
											CHANNELS 6 Xposition Yposition Zposition Zrotation Yrotation Xrotation
											JOINT RightHandRing3
											{
												OFFSET 0.000000 0.000000 3.654984
												CHANNELS 6 Xposition Yposition Zposition Zrotation Yrotation Xrotation
												JOINT RightHandRing4
												{
													OFFSET 0.000000 0.000000 2.741241
													CHANNELS 6 Xposition Yposition Zposition Zrotation Yrotation Xrotation
													End Site
													{
														OFFSET 0.000000 0.000000 0.100006
													}
												}
											}
										}
									}
									JOINT RightHandPinky1
									{
										OFFSET -0.173492 4.467224 7.976990
										CHANNELS 6 Xposition Yposition Zposition Zrotation Yrotation Xrotation
										JOINT RightHandPinky2
										{
											OFFSET 0.000000 0.000000 3.350403
											CHANNELS 6 Xposition Yposition Zposition Zrotation Yrotation Xrotation
											JOINT RightHandPinky3
											{
												OFFSET 0.000000 0.000000 2.842758
												CHANNELS 6 Xposition Yposition Zposition Zrotation Yrotation Xrotation
												JOINT RightHandPinky4
												{
													OFFSET 0.000000 0.000000 2.639709
													CHANNELS 6 Xposition Yposition Zposition Zrotation Yrotation Xrotation
													End Site
													{
														OFFSET 0.000000 0.000000 0.100006
													}
												}
											}
										}
									}
									JOINT RightForeArmEnd
									{
										OFFSET 0.000000 0.000000 0.000000
										CHANNELS 6 Xposition Yposition Zposition Zrotation Yrotation Xrotation
										End Site
										{
											OFFSET 0.000000 0.000000 0.100006
										}
									}
								}
								JOINT RightArmEnd
								{
									OFFSET 0.000000 0.000000 0.000000
									CHANNELS 6 Xposition Yposition Zposition Zrotation Yrotation Xrotation
									End Site
									{
										OFFSET 0.000000 0.000000 0.100006
									}
								}
							}
						}
					}
					JOINT LeftShoulder
					{
						OFFSET 2.625397 0.000000 11.175217
						CHANNELS 6 Xposition Yposition Zposition Zrotation Yrotation Xrotation
						JOINT LeftArm
						{
							OFFSET 0.000000 0.000000 10.813629
							CHANNELS 6 Xposition Yposition Zposition Zrotation Yrotation Xrotation
							JOINT LeftForeArm
							{
								OFFSET 0.000000 0.000000 28.724777
								CHANNELS 6 Xposition Yposition Zposition Zrotation Yrotation Xrotation
								JOINT LeftHand
								{
									OFFSET 0.644379 0.328857 25.716171
									CHANNELS 6 Xposition Yposition Zposition Zrotation Yrotation Xrotation
									JOINT LeftHandThumb1
									{
										OFFSET 2.867310 -2.944275 3.959564
										CHANNELS 6 Xposition Yposition Zposition Zrotation Yrotation Xrotation
										JOINT LeftHandThumb2
										{
											OFFSET 0.000000 0.000000 3.350403
											CHANNELS 6 Xposition Yposition Zposition Zrotation Yrotation Xrotation
											JOINT LeftHandThumb3
											{
												OFFSET 0.000000 0.000000 3.756516
												CHANNELS 6 Xposition Yposition Zposition Zrotation Yrotation Xrotation
												JOINT LeftHandThumb4
												{
													OFFSET 0.000000 0.000000 3.100006
													CHANNELS 6 Xposition Yposition Zposition Zrotation Yrotation Xrotation
													End Site
													{
														OFFSET 0.000000 0.000000 0.100006
													}
												}
											}
										}
									}
									JOINT LeftHandIndex1
									{
										OFFSET 0.086761 -2.345276 10.030899
										CHANNELS 6 Xposition Yposition Zposition Zrotation Yrotation Xrotation
										JOINT LeftHandIndex2
										{
											OFFSET 0.000000 0.000000 4.061096
											CHANNELS 6 Xposition Yposition Zposition Zrotation Yrotation Xrotation
											JOINT LeftHandIndex3
											{
												OFFSET 0.000000 0.000000 3.248871
												CHANNELS 6 Xposition Yposition Zposition Zrotation Yrotation Xrotation
												JOINT LeftHandIndex4
												{
													OFFSET 0.000000 0.000000 2.639709
													CHANNELS 6 Xposition Yposition Zposition Zrotation Yrotation Xrotation
													End Site
													{
														OFFSET 0.000000 0.000000 0.100006
													}
												}
											}
										}
									}
									JOINT LeftHandMiddle1
									{
										OFFSET -0.104095 -0.006775 9.502945
										CHANNELS 6 Xposition Yposition Zposition Zrotation Yrotation Xrotation
										JOINT LeftHandMiddle2
										{
											OFFSET 0.000000 0.000000 4.568726
											CHANNELS 6 Xposition Yposition Zposition Zrotation Yrotation Xrotation
											JOINT LeftHandMiddle3
											{
												OFFSET 0.000000 0.000000 3.654984
												CHANNELS 6 Xposition Yposition Zposition Zrotation Yrotation Xrotation
												JOINT LeftHandMiddle4
												{
													OFFSET 0.000000 0.000000 2.741241
													CHANNELS 6 Xposition Yposition Zposition Zrotation Yrotation Xrotation
													End Site
													{
														OFFSET 0.000000 0.000000 0.100006
													}
												}
											}
										}
									}
									JOINT LeftHandRing1
									{
										OFFSET -0.086761 2.267456 8.921707
										CHANNELS 6 Xposition Yposition Zposition Zrotation Yrotation Xrotation
										JOINT LeftHandRing2
										{
											OFFSET 0.000000 0.000000 4.061096
											CHANNELS 6 Xposition Yposition Zposition Zrotation Yrotation Xrotation
											JOINT LeftHandRing3
											{
												OFFSET 0.000000 0.000000 3.654984
												CHANNELS 6 Xposition Yposition Zposition Zrotation Yrotation Xrotation
												JOINT LeftHandRing4
												{
													OFFSET 0.000000 0.000000 2.741241
													CHANNELS 6 Xposition Yposition Zposition Zrotation Yrotation Xrotation
													End Site
													{
														OFFSET 0.000000 0.000000 0.100006
													}
												}
											}
										}
									}
									JOINT LeftHandPinky1
									{
										OFFSET 0.173492 4.467224 7.976990
										CHANNELS 6 Xposition Yposition Zposition Zrotation Yrotation Xrotation
										JOINT LeftHandPinky2
										{
											OFFSET 0.000000 0.000000 3.350403
											CHANNELS 6 Xposition Yposition Zposition Zrotation Yrotation Xrotation
											JOINT LeftHandPinky3
											{
												OFFSET 0.000000 0.000000 2.842758
												CHANNELS 6 Xposition Yposition Zposition Zrotation Yrotation Xrotation
												JOINT LeftHandPinky4
												{
													OFFSET 0.000000 0.000000 2.639709
													CHANNELS 6 Xposition Yposition Zposition Zrotation Yrotation Xrotation
													End Site
													{
														OFFSET 0.000000 0.000000 0.100006
													}
												}
											}
										}
									}
									JOINT LeftForeArmEnd
									{
										OFFSET 0.000000 0.000000 0.000000
										CHANNELS 6 Xposition Yposition Zposition Zrotation Yrotation Xrotation
										End Site
										{
											OFFSET 0.000000 0.000000 0.100006
										}
									}
								}
								JOINT LeftArmEnd
								{
									OFFSET 0.000000 0.000000 0.000000
									CHANNELS 6 Xposition Yposition Zposition Zrotation Yrotation Xrotation
									End Site
									{
										OFFSET 0.000000 0.000000 0.100006
									}
								}
							}
						}
					}
				}
			}
		}
	}
	JOINT RightUpLeg
	{
		OFFSET -11.289948 0.000000 0.000000
		CHANNELS 6 Xposition Yposition Zposition Zrotation Yrotation Xrotation
		JOINT RightLeg
		{
			OFFSET 0.000000 0.000000 -38.200329
			CHANNELS 6 Xposition Yposition Zposition Zrotation Yrotation Xrotation
			JOINT RightFoot
			{
				OFFSET 0.000000 0.000000 -39.900856
				CHANNELS 6 Xposition Yposition Zposition Zrotation Yrotation Xrotation
				JOINT RightToeBase
				{
					OFFSET 0.000000 -15.261658 0.000001
					CHANNELS 6 Xposition Yposition Zposition Zrotation Yrotation Xrotation
					JOINT RightToeBaseEnd
					{
						OFFSET 0.000000 -7.370728 0.000001
						CHANNELS 6 Xposition Yposition Zposition Zrotation Yrotation Xrotation
						End Site
						{
							OFFSET 0.000000 0.000000 0.100000
						}
					}
				}
				JOINT RightLegEnd
				{
					OFFSET 0.000000 0.000000 0.000000
					CHANNELS 6 Xposition Yposition Zposition Zrotation Yrotation Xrotation
					End Site
					{
						OFFSET 0.000000 0.000000 0.100000
					}
				}
			}
			JOINT RightUpLegEnd
			{
				OFFSET 0.000000 0.000000 0.000000
				CHANNELS 6 Xposition Yposition Zposition Zrotation Yrotation Xrotation
				End Site
				{
					OFFSET 0.000000 0.000000 0.099998
				}
			}
		}
	}
	JOINT LeftUpLeg
	{
		OFFSET 11.315674 0.000000 0.000000
		CHANNELS 6 Xposition Yposition Zposition Zrotation Yrotation Xrotation
		JOINT LeftLeg
		{
			OFFSET 0.000000 0.000000 -38.200329
			CHANNELS 6 Xposition Yposition Zposition Zrotation Yrotation Xrotation
			JOINT LeftFoot
			{
				OFFSET 0.000000 0.000000 -39.900856
				CHANNELS 6 Xposition Yposition Zposition Zrotation Yrotation Xrotation
				JOINT LeftToeBase
				{
					OFFSET 0.000000 -15.261658 0.000001
					CHANNELS 6 Xposition Yposition Zposition Zrotation Yrotation Xrotation
					JOINT LeftToeBaseEnd
					{
						OFFSET 0.000000 -7.539978 0.000001
						CHANNELS 6 Xposition Yposition Zposition Zrotation Yrotation Xrotation
						End Site
						{
							OFFSET 0.000000 0.000000 0.100000
						}
					}
				}
				JOINT LeftLegEnd
				{
					OFFSET 0.000000 0.000000 0.000000
					CHANNELS 6 Xposition Yposition Zposition Zrotation Yrotation Xrotation
					End Site
					{
						OFFSET 0.000000 0.000000 0.100000
					}
				}
			}
			JOINT LeftUpLegEnd
			{
				OFFSET 0.000000 0.000000 0.000000
				CHANNELS 6 Xposition Yposition Zposition Zrotation Yrotation Xrotation
				End Site
				{
					OFFSET 0.000000 0.000000 0.099998
				}
			}
		}
	}
}
MOTION
Frames: 2
Frame Time: 0.016667
-5.953003 -12.396606 86.693222 -19.435988 5.011313 -22.111983 0.000014 2.080096 8.814236 -1.849104 -5.718822 10.658607 0.000011 0.000001 8.844128 -0.469041 -0.614680 4.048002 -0.000006 -0.000021 11.682264 -4.382595 -1.096617 14.044193 0.000012 -0.000007 11.746703 -1.660063 -0.538991 6.940700 0.000010 -0.000019 17.658264 6.884726 -4.467041 11.960019 0.000014 -0.000007 5.101513 8.573073 -1.083949 -0.120238 -0.000007 0.000024 5.101530 -1.445094 3.493398 -17.410198 0.000022 0.000001 11.655108 -0.000000 0.000000 -0.000000 -2.625437 -0.000015 11.175195 14.234097 -93.636696 0.136512 -0.000015 -0.000023 10.434700 -50.320725 -35.706982 52.949686 0.000002 -0.000038 29.628452 9.828005 0.154616 29.056957 -0.000008 -0.000006 22.857536 21.915828 -11.130236 -10.037399 -2.867310 -2.944260 3.959602 31.586661 -17.619296 50.974678 -0.000019 -0.000008 3.350414 -13.456795 8.731280 -24.185357 0.000000 0.000004 3.756531 -8.945592 6.680346 -16.547250 -0.000009 0.000007 3.147343 -0.000001 -0.000001 0.000002 -0.086761 -2.345291 10.030949 -12.099488 -17.277238 3.104101 0.000010 -0.000029 4.061073 0.327227 -12.350442 1.759573 0.000014 0.000015 3.248880 -0.179060 -12.350554 1.761349 0.000002 0.000044 2.639729 0.000002 -0.000001 0.000000 0.104076 -0.006806 9.502968 -6.599505 -16.269955 0.809864 0.000001 -0.000000 4.568735 0.435804 -11.566580 0.608620 0.000012 0.000014 3.655007 -0.054648 -11.566567 0.600158 0.000003 -0.000002 2.741254 0.000000 -0.000005 0.000002 0.086760 2.267456 8.921746 1.540695 -17.511661 0.111497 -0.000007 -0.000009 4.061108 -0.916444 -12.384064 -0.769503 0.000003 -0.000014 3.654984 0.087723 -12.384177 -0.770396 0.000013 0.000005 2.741261 -0.000001 0.000001 0.000000 -0.173492 4.467278 7.976992 10.410904 -17.653133 -2.566715 0.000008 0.000011 3.350430 -1.734014 -12.396740 -2.448725 0.000006 0.000006 2.842772 0.265985 -12.396681 -2.448734 0.000004 -0.000001 2.639715 0.000000 -0.000001 0.000000 -0.000001 -0.000005 0.000019 0.000000 -0.000001 -0.000001 0.000011 -0.000021 -0.000011 0.000003 0.000001 0.000002 2.625414 0.000021 11.175211 -11.206755 93.089352 -0.563172 0.000008 -0.000008 10.813644 45.639536 50.045479 48.804277 -0.000010 0.000053 28.724800 -8.138236 0.620868 38.003162 0.644405 0.328838 25.716190 -23.551831 6.551844 -10.229077 2.867310 -2.944290 3.959564 -31.530216 18.328321 49.914032 0.000004 0.000000 3.350399 15.033125 -9.283047 -26.791429 0.000008 0.000034 3.756496 9.969995 -7.211263 -18.309622 -0.000002 -0.000001 3.100016 0.000000 -0.000000 0.000000 0.086765 -2.345258 10.030895 -4.965116 22.759560 -2.233872 0.000013 0.000013 4.061092 0.172168 16.076308 -2.324062 0.000009 -0.000022 3.248882 -0.327887 16.076454 -2.323997 -0.000012 0.000008 2.639730 0.000001 0.000003 0.000001 -0.104090 -0.006765 9.502945 -0.022400 20.183124 0.236057 0.000041 0.000023 4.568724 0.417464 14.297568 -0.769445 -0.000005 0.000001 3.654988 -0.083779 14.297602 -0.760734 0.000001 0.000006 2.741247 -0.000001 0.000001 0.000001 -0.086754 2.267467 8.921700 7.896873 17.222860 4.574712 0.000005 0.000029 4.061102 -0.918016 12.443499 0.772634 -0.000005 0.000003 3.654977 0.080636 12.440419 0.772433 0.000001 0.000001 2.741253 0.000001 0.000002 0.000001 0.173496 4.467251 7.976982 15.793655 12.569969 7.627113 -0.000011 -0.000024 3.350414 -1.837076 9.739642 1.911998 -0.000007 0.000034 2.842781 0.162906 9.739655 1.912000 0.000004 0.000006 2.639694 -0.000001 0.000001 0.000001 0.000016 -0.000006 -0.000027 0.000001 -0.000000 0.000001 -0.000001 0.000020 -0.000001 -0.000002 0.000002 -0.000000 -11.289961 -0.000042 -0.000031 -7.526516 -7.887259 23.078951 -0.000015 0.000005 -38.200336 -0.178045 0.032090 9.711049 -0.000001 0.000053 -39.900852 -5.043836 9.505712 13.015416 -0.000003 -15.261677 0.000021 0.728309 -0.572859 -16.945271 0.000005 -7.370719 0.000001 -0.000001 0.000000 0.000000 -0.000015 -0.000006 -0.000000 0.000001 -0.000001 -0.000002 -0.000001 0.000006 0.000003 -0.000001 0.000000 -0.000001 11.315653 -0.000055 -0.000008 -5.830986 -19.833845 9.917545 -0.000047 -0.000066 -38.200310 1.036088 -0.343012 18.299260 -0.000038 -0.000047 -39.900841 16.247190 4.405096 24.837457 -0.000017 -15.261691 0.000019 -0.034451 -2.507043 -21.013178 -0.000001 -7.539978 0.000003 -0.000000 -0.000001 0.000000 -0.000006 -0.000001 0.000001 0.000000 -0.000002 0.000001 0.000004 0.000045 -0.000002 0.000002 -0.000001 -0.000000 
-6.117157 -12.204773 86.687576 -19.443247 4.978205 -22.135245 -0.000002 2.080063 8.814251 -1.846760 -5.746024 10.686766 -0.000017 -0.000025 8.844128 -0.484820 -0.635452 4.093529 0.000010 -0.000025 11.682289 -4.548360 -1.175256 13.971527 0.000008 -0.000004 11.746717 -1.720944 -0.555391 6.924186 -0.000006 -0.000011 17.658266 6.952715 -4.258062 12.135044 0.000005 0.000030 5.101526 8.590586 -1.077396 -0.001194 0.000004 -0.000002 5.101543 -1.459554 3.513022 -17.428244 -0.000000 -0.000002 11.655073 0.000001 0.000001 -0.000001 -2.625416 -0.000003 11.175245 14.197137 -93.654864 0.135286 0.000015 -0.000004 10.434692 -50.105346 -36.239659 52.719744 -0.000010 0.000008 29.628490 9.752038 0.148401 28.924106 -0.000034 0.000031 22.857574 23.037011 -11.136881 -10.333985 -2.867306 -2.944183 3.959541 31.586657 -17.619293 50.974696 0.000000 0.000008 3.350399 -13.456796 8.731283 -24.185343 0.000008 0.000015 3.756523 -8.945596 6.680341 -16.547262 -0.000015 0.000022 3.147366 -0.000003 -0.000001 0.000001 -0.086746 -2.345213 10.030933 -12.132335 -17.450677 2.784817 -0.000016 -0.000002 4.061102 0.327403 -12.438042 1.771812 0.000000 0.000018 3.248863 -0.179368 -12.438084 1.773267 0.000007 0.000007 2.639745 -0.000002 -0.000002 0.000001 0.104076 -0.006775 9.502983 -6.634606 -16.451393 0.560409 -0.000009 -0.000021 4.568720 0.435730 -11.684412 0.608525 -0.000007 -0.000005 3.655003 -0.054971 -11.684424 0.600502 -0.000002 -0.000003 2.741240 0.000001 -0.000001 -0.000000 0.086754 2.267505 8.921740 1.487571 -17.813253 -0.081683 0.000001 -0.000014 4.061088 -0.917097 -12.608638 -0.783088 -0.000010 -0.000016 3.655004 0.087577 -12.608742 -0.784152 0.000006 -0.000002 2.741243 0.000000 -0.000002 0.000000 -0.173500 4.467278 7.976992 10.355648 -18.068333 -2.789273 0.000011 -0.000015 3.350426 -1.719959 -12.713202 -2.513398 -0.000004 0.000002 2.842789 0.280039 -12.713441 -2.513385 0.000007 -0.000002 2.639729 0.000000 -0.000000 -0.000001 0.000001 0.000001 0.000023 -0.000000 0.000001 0.000001 -0.000011 -0.000010 -0.000000 0.000003 0.000001 0.000001 2.625401 -0.000033 11.175218 -11.240291 92.979092 -0.576554 0.000015 0.000032 10.813610 45.796569 50.273044 49.078536 -0.000008 0.000031 28.724810 -8.134299 0.607265 37.982252 0.644299 0.328831 25.716175 -24.192371 6.304709 -10.190045 2.867317 -2.944275 3.959572 -31.530209 18.328316 49.914015 0.000008 0.000008 3.350410 15.033122 -9.283055 -26.791424 0.000004 0.000031 3.756531 9.970013 -7.211262 -18.309625 -0.000002 0.000011 3.099996 -0.000002 -0.000000 -0.000001 0.086754 -2.345283 10.030903 -4.956447 22.727584 -2.707020 0.000007 0.000027 4.061094 0.174894 16.103556 -2.321786 -0.000006 0.000017 3.248898 -0.325394 16.103339 -2.322027 0.000010 0.000007 2.639741 -0.000000 -0.000001 -0.000001 -0.104071 -0.006746 9.502971 -0.006658 20.245594 -0.204302 0.000005 0.000021 4.568725 0.416646 14.361011 -0.766699 -0.000011 -0.000017 3.654977 -0.084487 14.361031 -0.760112 0.000004 0.000010 2.741250 -0.000001 -0.000000 0.000001 -0.086761 2.267446 8.921749 7.950308 17.486739 4.166130 -0.000002 0.000007 4.061089 -0.917639 12.604796 0.779123 -0.000003 -0.000002 3.654986 0.081416 12.604945 0.779698 -0.000002 -0.000017 2.741252 0.000003 -0.000001 -0.000000 0.173473 4.467261 7.977020 15.883619 12.978906 7.285273 0.000008 0.000017 3.350414 -1.829382 9.964122 1.956919 0.000015 -0.000005 2.842745 0.170599 9.963743 1.956949 -0.000009 -0.000012 2.639697 0.000001 0.000001 0.000002 0.000003 0.000009 0.000006 -0.000001 0.000002 0.000001 -0.000004 -0.000005 0.000037 0.000000 -0.000002 -0.000000 -11.289947 -0.000031 0.000015 -7.639226 -7.976826 23.017241 0.000000 -0.000009 -38.200336 -0.167441 0.031495 9.756037 -0.000036 0.000040 -39.900845 -4.989415 9.693284 13.026227 0.000015 -15.261733 -0.000002 0.694171 -0.583697 -17.058712 0.000001 -7.370718 0.000001 -0.000001 0.000001 0.000001 -0.000002 -0.000006 0.000001 0.000001 -0.000000 0.000000 -0.000049 0.000002 -0.000003 -0.000000 -0.000000 -0.000000 11.315670 -0.000010 -0.000008 -6.013383 -19.818586 9.950127 0.000021 -0.000052 -38.200325 1.022303 -0.335974 18.191408 -0.000043 -0.000036 -39.900841 16.029513 4.209631 24.908870 0.000005 -15.261691 0.000010 -0.025961 -2.499962 -20.913769 -0.000001 -7.539979 0.000002 0.000000 -0.000001 0.000000 -0.000004 -0.000006 0.000002 0.000001 0.000000 -0.000001 -0.000045 0.000048 0.000001 0.000002 -0.000001 0.000000 
